<svg id="short_logo_centered_S" data-name="short logo centered S" xmlns="http://www.w3.org/2000/svg" viewBox="0 0 195 195"><defs><style>.cls-1{fill:#ecf0f1;}.cls-2{fill:#343a40;}.cls-3{fill:#28a745;}</style></defs><rect class="cls-1" x="4" y="4" width="187" height="187" rx="29.83"/><path class="cls-2" d="M672.94,243H545.59a33.86,33.86,0,0,1-33.82-33.82V81.83A33.86,33.86,0,0,1,545.59,48H672.94a33.87,33.87,0,0,1,33.83,33.83V209.18A33.86,33.86,0,0,1,672.94,243ZM545.59,56a25.85,25.85,0,0,0-25.82,25.83V209.18A25.85,25.85,0,0,0,545.59,235H672.94a25.85,25.85,0,0,0,25.83-25.82V81.83A25.86,25.86,0,0,0,672.94,56Z" transform="translate(-511.77 -48)"/><path class="cls-2" d="M587.8,204.65a92.31,92.31,0,0,1-21.29-2.45,58,58,0,0,1-18-7.34,9.75,9.75,0,0,1-4.57-6,10.62,10.62,0,0,1,.57-6.77,7.91,7.91,0,0,1,4.41-4.4q3-1.23,6.93,1.22a55.73,55.73,0,0,0,15.17,6.2,70.18,70.18,0,0,0,16.81,2q12.88,0,18.76-4.33a13.26,13.26,0,0,0,5.87-11.17,10.77,10.77,0,0,0-4.16-9q-4.15-3.26-14.27-5.38l-18-3.75q-30.67-6.53-30.67-31.49a31.4,31.4,0,0,1,5.71-18.76,37,37,0,0,1,15.82-12.4,58,58,0,0,1,23.34-4.41,69.33,69.33,0,0,1,18.6,2.45A53.71,53.71,0,0,1,624.67,96a8.88,8.88,0,0,1,3.92,5.63,9.32,9.32,0,0,1-.82,6.2,7.76,7.76,0,0,1-4.65,3.91c-2.12.71-4.6.25-7.42-1.39a46.75,46.75,0,0,0-12.24-4.89A57.87,57.87,0,0,0,590.08,104q-11.25,0-17.62,4.73a14.76,14.76,0,0,0-6.36,12.4,12,12,0,0,0,3.91,9.38q3.91,3.52,13.38,5.47l17.79,3.75q16.14,3.43,24.06,10.77t7.91,19.58a30.59,30.59,0,0,1-5.54,18.11,35.86,35.86,0,0,1-15.75,12.15Q601.66,204.66,587.8,204.65Z" transform="translate(-511.77 -48)"/><path class="cls-3" d="M661.39,203.93a13.29,13.29,0,0,1-10-3.84,13.53,13.53,0,0,1-3.75-9.87,13,13,0,0,1,3.75-9.6,13.46,13.46,0,0,1,10-3.75q6.4,0,10,3.75a13.35,13.35,0,0,1,3.56,9.6,13.91,13.91,0,0,1-3.56,9.87Q667.79,203.93,661.39,203.93Z" transform="translate(-511.77 -48)"/></svg>