<svg id="full_logo" data-name="full logo" xmlns="http://www.w3.org/2000/svg" viewBox="0 0 744.73 135.25"><defs><style>.cls-1{fill:none;stroke:#343a40;stroke-width:8px;}.cls-2{fill:#343a40;}.cls-3{fill:#28a745;}</style></defs><path class="cls-1" d="M173.22,500c2.9,12.42,12.09,17.87,26.83,17.87s21-5.64,21-14.7c0-10.07-6.14-14.44-27.93-19.36-34.68-7.9-43.25-20.15-43.25-36.85,0-21.56,16.61-36.2,46.77-36.2,33.83,0,47.31,17.66,49.14,35.75H218c-1.33-7.61-5.67-15.88-22.09-15.88-11.19,0-17.93,4.48-17.93,13.27,0,8.6,5.41,12.09,26,16.72,37.06,8.48,45.19,21.86,45.19,39.31,0,22.58-17.61,38.08-51.29,38.08-32.34,0-49.37-15.46-52.43-38Z" transform="translate(-140.88 -406.76)"/><path class="cls-1" d="M292.05,500c2.91,12.42,12.09,17.87,26.83,17.87s21-5.64,21-14.7c0-10.07-6.14-14.44-27.93-19.36-34.68-7.9-43.25-20.15-43.25-36.85,0-21.56,16.61-36.2,46.77-36.2,33.83,0,47.31,17.66,49.14,35.75H336.85c-1.33-7.61-5.67-15.88-22.09-15.88-11.19,0-17.93,4.48-17.93,13.27,0,8.6,5.41,12.09,26,16.72C359.88,469.1,368,482.48,368,499.93,368,522.51,350.4,538,316.72,538c-32.34,0-49.37-15.46-52.43-38Z" transform="translate(-140.88 -406.76)"/><path class="cls-2" d="M432.67,538a101.26,101.26,0,0,1-23.29-2.67,63.55,63.55,0,0,1-19.72-8,10.71,10.71,0,0,1-5-6.6,11.66,11.66,0,0,1,.63-7.4,8.64,8.64,0,0,1,4.82-4.82q3.3-1.35,7.58,1.34a61.23,61.23,0,0,0,16.6,6.78,77.44,77.44,0,0,0,18.38,2.14q14.1,0,20.52-4.73a14.53,14.53,0,0,0,6.43-12.23,11.79,11.79,0,0,0-4.55-9.81q-4.56-3.57-15.62-5.89L419.82,482q-33.56-7.12-33.55-34.44A34.34,34.34,0,0,1,392.52,427a40.53,40.53,0,0,1,17.31-13.56q11.06-4.83,25.52-4.82a75.8,75.8,0,0,1,20.34,2.67A58.92,58.92,0,0,1,473,419.19a9.73,9.73,0,0,1,4.29,6.15,10.14,10.14,0,0,1-.9,6.78,8.49,8.49,0,0,1-5.08,4.29c-2.32.77-5,.27-8.12-1.52a50.73,50.73,0,0,0-13.39-5.35,63.43,63.43,0,0,0-14.63-1.61q-12.32,0-19.27,5.18a16.12,16.12,0,0,0-7,13.56,13.08,13.08,0,0,0,4.28,10.26q4.27,3.84,14.63,6l19.46,4.1q17.65,3.75,26.32,11.78t8.65,21.42A33.44,33.44,0,0,1,476.22,520q-6.08,8.57-17.23,13.29T432.67,538Z" transform="translate(-140.88 -406.76)"/><path class="cls-2" d="M510.84,537.69q-11.07,0-11.07-11.43v-106q0-11.25,11.07-11.25,11.24,0,11.24,11.25v41.4a28.66,28.66,0,0,1,12-10.8,37.42,37.42,0,0,1,16.59-3.65q30.89,0,30.88,35.87v43.18q0,11.43-11.07,11.43-11.24,0-11.24-11.43V484.15q0-10.17-3.84-14.82t-11.86-4.64q-9.82,0-15.62,6.16t-5.8,16.33v39.08Q522.08,537.69,510.84,537.69Z" transform="translate(-140.88 -406.76)"/><path class="cls-2" d="M644,538q-13.56,0-23.56-5.53a38.6,38.6,0,0,1-15.53-15.79q-5.52-10.26-5.53-24.19t5.53-24.09a38.74,38.74,0,0,1,15.53-15.7q10-5.53,23.56-5.53t23.56,5.53a38.72,38.72,0,0,1,15.52,15.7q5.54,10.17,5.53,24.09t-5.53,24.19a38.58,38.58,0,0,1-15.52,15.79Q657.53,538,644,538Zm0-16.95A19.93,19.93,0,0,0,660,513.86q6.06-7.23,6.07-21.33,0-14.26-6.07-21.32t-16.06-7q-10,0-16.06,7t-6.07,21.32q0,14.1,6.07,21.33T644,521.09Z" transform="translate(-140.88 -406.76)"/><path class="cls-2" d="M738.91,537.69q-9.28,0-12.85-9.28l-25.88-66c-1.54-4.16-1.46-7.67.27-10.53s4.79-4.28,9.19-4.28a10.44,10.44,0,0,1,6.43,1.88c1.66,1.24,3.09,3.6,4.28,7L740,510.2l20.17-55.14q2.85-7.5,10.17-7.5,7.5,0,10.17,7.5l20.17,55.68L820.47,456c1.19-3.21,2.7-5.41,4.55-6.6a11.09,11.09,0,0,1,6.15-1.79q6.44,0,8.39,4.55t-.35,10.26l-25.7,66q-3.75,9.27-12.85,9.28-9.46,0-12.85-9.28L769.61,480l-17.85,48.19Q748.37,537.68,738.91,537.69Z" transform="translate(-140.88 -406.76)"/><path class="cls-3" d="M870.81,537.26q-6.81,0-10.9-4.2a14.79,14.79,0,0,1-4.1-10.8,14.18,14.18,0,0,1,4.1-10.5q4.1-4.1,10.9-4.1,7,0,10.9,4.1a14.6,14.6,0,0,1,3.9,10.5,15.24,15.24,0,0,1-3.9,10.8Q877.81,537.26,870.81,537.26Z" transform="translate(-140.88 -406.76)"/></svg>